<?xml version="1.0" encoding="utf-8"?>
<!-- Generator: Adobe Illustrator 16.0.0, SVG Export Plug-In . SVG Version: 6.00 Build 0)  -->
<!DOCTYPE svg PUBLIC "-//W3C//DTD SVG 1.1//EN" "http://www.w3.org/Graphics/SVG/1.1/DTD/svg11.dtd">
<svg version="1.1" id="Layer_1" xmlns="http://www.w3.org/2000/svg" xmlns:xlink="http://www.w3.org/1999/xlink" x="0px" y="0px"
	 width="221.009px" height="243.697px" viewBox="0 0 221.009 243.697" enable-background="new 0 0 221.009 243.697"
	 xml:space="preserve">
<g>
	<path fill="#FFFFFF" d="M147.992,212.194l60.204-34.76c4.184-2.415,3.654-6.674-1.177-9.463L91.747,101.419
		c-4.831-2.789-12.207-3.095-16.391-0.679l-60.204,34.759c-4.184,2.416-3.654,6.674,1.177,9.463l115.272,66.553
		C136.433,214.304,143.809,214.609,147.992,212.194z"/>
	<g>
		<path fill="#C0CDE9" d="M147.992,212.194l60.204-34.76c1.822-1.052,2.749-2.453,2.816-3.932v7.709
			c-0.038,1.506-0.963,2.938-2.816,4.009l-60.204,34.759c-2.075,1.198-4.936,1.725-7.881,1.613c0-2.596,0-5.19,0-7.785
			C143.057,213.919,145.917,213.392,147.992,212.194z"/>
		
			<linearGradient id="SVGID_1_" gradientUnits="userSpaceOnUse" x1="218.0596" y1="139.9766" x2="40.4282" y2="245.4451" gradientTransform="matrix(-1 0 0 1 223.3496 0)">
			<stop  offset="0" style="stop-color:#E6F2FB"/>
			<stop  offset="0.0155" style="stop-color:#E5F1FA"/>
			<stop  offset="0.633" style="stop-color:#C9D6EE"/>
			<stop  offset="0.9993" style="stop-color:#C0CDE9"/>
		</linearGradient>
		<path fill="url(#SVGID_1_)" d="M16.329,144.962l115.272,66.553c2.435,1.406,5.517,2.179,8.51,2.293c0,2.595,0,5.189,0,7.785
			c-2.993-0.113-6.075-0.887-8.51-2.293L16.329,152.747c-2.727-1.574-4.081-3.615-3.993-5.531v-7.707
			C12.287,141.401,13.639,143.409,16.329,144.962z"/>
	</g>
	<g>
		<g>
			
				<linearGradient id="SVGID_2_" gradientUnits="userSpaceOnUse" x1="82.1318" y1="78.9258" x2="82.1318" y2="145.3199" gradientTransform="matrix(-1 0 0 1 223.3496 0)">
				<stop  offset="0" style="stop-color:#738DC8"/>
				<stop  offset="0.0776" style="stop-color:#6D87C4"/>
				<stop  offset="0.4882" style="stop-color:#4E6BB3"/>
				<stop  offset="0.8093" style="stop-color:#395CAA"/>
				<stop  offset="0.9993" style="stop-color:#3156A6"/>
			</linearGradient>
			<polygon fill="url(#SVGID_2_)" points="131.028,93.016 141.218,78.523 151.407,104.782 146.327,101.849 146.327,147.129 
				136.109,141.229 136.109,95.949 			"/>
			
				<linearGradient id="SVGID_3_" gradientUnits="userSpaceOnUse" x1="106.271" y1="25.6084" x2="106.271" y2="128.0353" gradientTransform="matrix(-1 0 0 1 223.3496 0)">
				<stop  offset="0" style="stop-color:#9D97CA"/>
				<stop  offset="0.2732" style="stop-color:#908AC2"/>
				<stop  offset="0.8109" style="stop-color:#716BB1"/>
				<stop  offset="0.9996" style="stop-color:#6661AB"/>
			</linearGradient>
			<polygon fill="url(#SVGID_3_)" points="106.889,39.906 117.078,25.413 127.268,51.672 122.188,48.739 122.188,133.191 
				111.97,127.292 111.97,42.84 			"/>
			
				<linearGradient id="SVGID_4_" gradientUnits="userSpaceOnUse" x1="130.4111" y1="38.2358" x2="130.4111" y2="111.6775" gradientTransform="matrix(-1 0 0 1 223.3496 0)">
				<stop  offset="0" style="stop-color:#62CBE6"/>
				<stop  offset="0.4043" style="stop-color:#50C0D8"/>
				<stop  offset="0.9996" style="stop-color:#0CB1C2"/>
			</linearGradient>
			<polygon fill="url(#SVGID_4_)" points="82.749,51.866 92.938,37.373 103.128,63.631 98.048,60.699 98.048,119.254 87.83,113.355 
				87.83,54.799 			"/>
			<polygon fill="#738DC8" points="85.563,170.411 95.781,176.31 146.327,147.128 136.109,141.228 			"/>
			<polygon fill="#9D97CA" points="61.424,156.474 71.642,162.373 122.188,133.19 111.97,127.291 			"/>
			<polygon fill="#62CBE6" points="37.284,142.536 47.502,148.437 98.048,119.253 87.83,113.354 			"/>
		</g>
		<g>
			<path fill="#C5DFF4" d="M153.34,177.31l-20.838,12.03c11.432,6.601,30.245,6.601,41.676,0c11.432-6.6,11.432-17.462,0-24.062
				c-11.431-6.6-30.244-6.6-41.676,0c-0.025,0.016-0.051,0.03-0.076,0.045L153.34,177.31z"/>
			<g>
				<path fill="#4379BD" d="M153.34,165.227l-20.914-11.986c-5.491,3.194-8.569,7.519-8.555,12.018
					c0.015,4.5,3.12,8.817,8.631,11.999L153.34,165.227z"/>
				<path fill="#475BA9" d="M132.426,177.21v12.084c-5.462-3.178-8.54-7.475-8.555-11.953v-12.083
					C123.886,169.736,126.964,174.033,132.426,177.21z"/>
				<path fill="#364EA1" d="M132.502,177.257l20.838-12.03v12.083l-20.838,12.03c-0.026-0.015-0.051-0.031-0.076-0.046V177.21
					C132.451,177.226,132.476,177.241,132.502,177.257z"/>
			</g>
		</g>
		<g>
			<path fill="#C5DFF4" d="M62.4,116.574c1.781,1.028,4.669,1.028,6.45,0c1.78-1.028,1.78-2.695,0-3.724
				c-1.781-1.028-4.669-1.028-6.45,0C60.62,113.879,60.62,115.546,62.4,116.574z"/>
			<path fill="#C5DFF4" d="M51.066,123.118c1.781,1.028,4.669,1.028,6.449,0c1.781-1.028,1.781-2.695,0-3.724
				c-1.78-1.028-4.668-1.028-6.449,0S49.285,122.09,51.066,123.118z"/>
			<path fill="#C5DFF4" d="M39.732,129.662c1.78,1.028,4.668,1.028,6.449,0s1.781-2.695,0-3.724s-4.669-1.028-6.449,0
				C37.951,126.967,37.951,128.634,39.732,129.662z"/>
		</g>
	</g>
</g>
<g>
	<g>
		<g>
			
				<linearGradient id="SVGID_5_" gradientUnits="userSpaceOnUse" x1="217.7139" y1="187.2891" x2="225.2904" y2="171.1478" gradientTransform="matrix(1 0 0 1 -184.5352 0)">
				<stop  offset="0.0708" style="stop-color:#FBC4B7"/>
				<stop  offset="0.2651" style="stop-color:#F5BAA9"/>
				<stop  offset="0.6473" style="stop-color:#EBA286"/>
				<stop  offset="0.9993" style="stop-color:#E28B65"/>
			</linearGradient>
			<path fill="url(#SVGID_5_)" d="M32.677,188.673L32.677,188.673c1.048,0.477,2.295,0.008,2.771-1.041l6.757-14.89
				c0.476-1.048,0.007-2.296-1.041-2.771l0,0c-1.049-0.477-2.296-0.008-2.771,1.041l-6.757,14.889
				C31.159,186.95,31.628,188.197,32.677,188.673z"/>
			<path fill="#F3C743" d="M36.284,172.886l2.181-4.804c0.735-1.622,2.664-2.347,4.286-1.61l0,0c1.621,0.736,2.346,2.664,1.61,4.286
				l-2.181,4.804C42.181,175.562,38.872,177.349,36.284,172.886z"/>
		</g>
		<g>
			<g>
				
					<linearGradient id="SVGID_6_" gradientUnits="userSpaceOnUse" x1="175.4023" y1="181.876" x2="175.4023" y2="191.9407" gradientTransform="matrix(-1 0 0 1 218.5146 0)">
					<stop  offset="0.0708" style="stop-color:#7358A5"/>
					<stop  offset="0.3525" style="stop-color:#664B96"/>
					<stop  offset="0.9072" style="stop-color:#462E7C"/>
					<stop  offset="0.9996" style="stop-color:#412978"/>
				</linearGradient>
				<path fill="url(#SVGID_6_)" d="M46.141,188.747c0.104,0.192,0.152,0.412,0.155,0.631l-0.007,7.107
					c0.021,1.383-1.39,2.536-3.133,2.562l0,0c-1.743,0.026-3.186-1.085-3.206-2.468l-0.021-9.019
					c-0.005-0.351,0.218-0.667,0.553-0.772C41.691,186.402,44.566,185.834,46.141,188.747z"/>
			</g>
			<g>
				<g>
					<path fill="#010101" d="M60.995,202.86c0.843,0.363,0.278,2.551,0.314,4.67c0.052,2.945-0.58,5.737-1.876,6.516
						c-0.328,0.197-0.618,0.216-0.87,0.088l-1.31-0.727c-0.765-0.371-1.283-2.1-1.986-4.679c-0.774-2.842-1.245-4.64,1.876-6.515
						c0.893-0.536,1.408-0.664,1.7-0.506L60.995,202.86z"/>
					<path fill="#1B1B37" d="M55.268,208.729c0.936,3.433,1.545,5.36,2.841,4.582s1.568-3.617,1.097-6.947
						c-0.414-2.916,1.06-6.024-2.062-4.149S54.493,205.887,55.268,208.729z"/>
				</g>
				
					<linearGradient id="SVGID_7_" gradientUnits="userSpaceOnUse" x1="244.9854" y1="205.8926" x2="230.404" y2="197.6972" gradientTransform="matrix(1 0 0 1 -184.5352 0)">
					<stop  offset="0.0708" style="stop-color:#7358A5"/>
					<stop  offset="0.3525" style="stop-color:#664B96"/>
					<stop  offset="0.9072" style="stop-color:#462E7C"/>
					<stop  offset="0.9996" style="stop-color:#412978"/>
				</linearGradient>
				<path fill="url(#SVGID_7_)" d="M54.681,206.071c-0.22-0.005-0.434-0.072-0.626-0.18l-12.887-7.145
					c-1.21-0.672-1.508-2.468-0.663-3.992l0,0c0.846-1.524,2.527-2.224,3.737-1.553l14.559,8.072
					c0.307,0.171,0.47,0.521,0.396,0.863C58.928,203.38,57.99,206.157,54.681,206.071z"/>
			</g>
		</g>
		<g>
			<g>
				<path fill="#010101" d="M52.703,216.664c0.091,0.913-2.097,1.48-3.932,2.54c-2.552,1.473-5.299,2.274-6.607,1.519
					c-0.332-0.191-0.489-0.436-0.5-0.719l0.001-1.497c-0.047-0.849,1.214-2.141,3.129-4.006c2.109-2.056,3.454-3.339,6.607-1.519
					c0.9,0.521,1.263,0.909,1.267,1.241L52.703,216.664z"/>
				<path fill="#1B1B37" d="M44.794,214.501c-2.549,2.483-3.939,3.95-2.63,4.706c1.309,0.756,3.924-0.382,6.607-2.41
					c2.35-1.775,5.782-1.994,2.63-3.814C48.248,211.162,46.903,212.445,44.794,214.501z"/>
			</g>
			
				<linearGradient id="SVGID_8_" gradientUnits="userSpaceOnUse" x1="234.3906" y1="216.6982" x2="234.3906" y2="186.7599" gradientTransform="matrix(1 0 0 1 -184.5352 0)">
				<stop  offset="0.0704" style="stop-color:#7358A5"/>
				<stop  offset="0.3523" style="stop-color:#664B96"/>
				<stop  offset="0.9072" style="stop-color:#462E7C"/>
				<stop  offset="0.9996" style="stop-color:#412978"/>
			</linearGradient>
			<path fill="url(#SVGID_8_)" d="M46.832,212.699c-0.102-0.195-0.146-0.414-0.146-0.634V190.19c0-1.383,1.427-2.516,3.17-2.516l0,0
				c1.743,0,3.17,1.133,3.17,2.516v23.786c0,0.351-0.228,0.662-0.563,0.765C51.246,215.108,48.363,215.635,46.832,212.699z"/>
		</g>
		<path fill="#FEFDEC" d="M51.98,194.122c-0.078,0.05-0.167,0.082-0.268,0.09c-1.402,0.107-6.44-0.989-11.48-6.67
			c-0.416-0.469-0.684-1.104-0.684-1.634v-16.12c0-1.215,0.435-2.068,1.132-2.461l3.79-2.211c0.69-0.41,1.647-0.361,2.701,0.247
			l5.169,2.985c2.088,1.204,3.795,4.162,3.795,6.572v16.215c0,0.377-0.135,0.654-0.365,0.775L51.98,194.122z"/>
		<path fill="#E5A89C" d="M50.514,169.349c0.008,0.4-0.252,0.803-0.781,1.109c-1.044,0.602-2.736,0.602-3.78,0
			c-0.529-0.307-0.789-0.709-0.781-1.109v-3.512c-0.008-0.401,0.252-0.803,0.781-1.109c1.044-0.603,2.736-0.603,3.78,0
			c0.529,0.306,0.789,0.708,0.781,1.109V169.349z"/>
		<g>
			
				<linearGradient id="SVGID_9_" gradientUnits="userSpaceOnUse" x1="249.8252" y1="192.2793" x2="240.6293" y2="176.1432" gradientTransform="matrix(1 0 0 1 -184.5352 0)">
				<stop  offset="0.0708" style="stop-color:#FBC4B7"/>
				<stop  offset="0.2651" style="stop-color:#F5BAA9"/>
				<stop  offset="0.6473" style="stop-color:#EBA286"/>
				<stop  offset="0.9993" style="stop-color:#E28B65"/>
			</linearGradient>
			<path fill="url(#SVGID_9_)" d="M64.776,192.413L64.776,192.413c1.027-0.52,1.443-1.785,0.924-2.813l-7.378-14.592
				c-0.52-1.027-1.785-1.442-2.813-0.923l0,0c-1.027,0.52-1.443,1.785-0.924,2.813l7.378,14.591
				C62.483,192.518,63.749,192.933,64.776,192.413z"/>
			<path fill="#F3C743" d="M54.728,179.714l-2.381-4.707c-0.803-1.59-0.16-3.547,1.429-4.351l0,0
				c1.589-0.804,3.547-0.161,4.35,1.429l2.381,4.708C60.506,176.793,59.827,180.491,54.728,179.714z"/>
		</g>
		
			<linearGradient id="SVGID_10_" gradientUnits="userSpaceOnUse" x1="227.165" y1="165.2861" x2="236.1714" y2="156.4378" gradientTransform="matrix(1 0 0 1 -184.5352 0)">
			<stop  offset="0.0708" style="stop-color:#FBC4B7"/>
			<stop  offset="0.2651" style="stop-color:#F5BAA9"/>
			<stop  offset="0.6473" style="stop-color:#EBA286"/>
			<stop  offset="0.9993" style="stop-color:#E28B65"/>
		</linearGradient>
		<circle fill="url(#SVGID_10_)" cx="47.772" cy="160.233" r="7.359"/>
		<path fill-rule="evenodd" clip-rule="evenodd" fill="#2F205E" d="M53.912,151.532c6.287,2.158,3.161,11.344-1.413,14.656
			c-2.236-1.223,0.483-3.41-2.568-1.888c-0.607-2.958,0.758-2.058-0.069-5.776c-3.197,1.668-9.422-0.354-10.389-3.436
			c1.114-0.494,2.281-3.658,4.887-4.818C47.712,148.777,52.003,149.437,53.912,151.532z"/>
		<path fill="#F0AC85" d="M50.23,164.368c0,0.877,0.615,1.232,1.376,0.794c0.76-0.438,1.376-1.506,1.376-2.384
			c0-0.877-0.616-1.232-1.376-0.795C50.846,162.423,50.23,163.49,50.23,164.368z"/>
	</g>
	<path fill="#2F205E" d="M40.854,162.269c0,1.698,1.012,3.658,2.259,4.378s2.259-0.072,2.259-1.77s-1.012-3.657-2.259-4.378
		C41.865,159.779,40.854,160.571,40.854,162.269z M41.694,162.175c0-0.32,0.635-0.213,1.418,0.238
		c0.783,0.452,1.417,1.078,1.417,1.398s-0.634,0.213-1.417-0.238C42.329,163.121,41.694,162.495,41.694,162.175z"/>
</g>
</svg>
