<?xml version="1.0" encoding="utf-8"?>
<!-- Generator: Adobe Illustrator 16.0.0, SVG Export Plug-In . SVG Version: 6.00 Build 0)  -->
<!DOCTYPE svg PUBLIC "-//W3C//DTD SVG 1.1//EN" "http://www.w3.org/Graphics/SVG/1.1/DTD/svg11.dtd">
<svg version="1.1" id="Layer_1" xmlns="http://www.w3.org/2000/svg" xmlns:xlink="http://www.w3.org/1999/xlink" x="0px" y="0px"
	 viewBox="0 0 210 233.333">
<g>
	<path fill="#C1D9F1" d="M111.253,213.258c-2.604,0-5.344-0.631-7.477-1.862l-53.311-30.779c-2.131-1.23-3.354-2.9-3.354-4.582
		c0-1.419,0.864-2.699,2.435-3.606l55.15-31.841c3.406-1.966,9.356-1.729,13.269,0.531l53.311,30.778
		c2.131,1.231,3.354,2.901,3.354,4.583c0,1.418-0.865,2.699-2.435,3.605l-55.149,31.842
		C115.496,212.819,113.422,213.258,111.253,213.258z M110.488,140.156c-2.003,0-3.911,0.402-5.333,1.224l-55.15,31.841
		c-1.275,0.735-1.977,1.735-1.977,2.813c0,1.346,1.055,2.727,2.896,3.789l53.311,30.779c3.659,2.113,9.2,2.352,12.352,0.531
		l55.15-31.842c1.275-0.735,1.977-1.734,1.977-2.813c0-1.346-1.055-2.727-2.896-3.79l-53.311-30.778
		C115.499,140.751,112.924,140.156,110.488,140.156z"/>
	<g>
		<g>
			<path fill="#8DD5E6" d="M131.373,144.762c11.792,6.808,11.792,17.846,0,24.653c-11.791,6.809-30.91,6.809-42.702,0
				c-11.792-6.808-11.792-17.846,0-24.653S119.582,137.954,131.373,144.762z"/>
			<linearGradient id="SVGID_1_" gradientUnits="userSpaceOnUse" x1="143.8623" y1="178.957" x2="84.8536" y2="171.581">
				<stop  offset="0" style="stop-color:#62CBE6"/>
				<stop  offset="0.4043" style="stop-color:#50C0D8"/>
				<stop  offset="0.9996" style="stop-color:#0CB1C2"/>
			</linearGradient>
			<path fill="url(#SVGID_1_)" d="M131.373,169.415c-11.791,6.809-30.91,6.809-42.702,0c-5.85-3.377-8.794-7.795-8.84-12.222v20.898
				c-0.046,4.496,2.898,9.001,8.84,12.431c11.792,6.809,30.911,6.809,42.702,0c5.941-3.43,8.887-7.935,8.84-12.431v-20.899
				C140.167,161.62,137.223,166.038,131.373,169.415z"/>
		</g>
		<g>
			<path fill="#C2BFE0" d="M131.373,104.592c11.792,6.808,11.792,17.846,0,24.654c-11.791,6.808-30.91,6.808-42.702,0
				s-11.792-17.846,0-24.654S119.582,97.784,131.373,104.592z"/>
			<linearGradient id="SVGID_2_" gradientUnits="userSpaceOnUse" x1="143.7646" y1="142.5518" x2="73.9759" y2="122.6931">
				<stop  offset="0" style="stop-color:#9D97CA"/>
				<stop  offset="0.2732" style="stop-color:#908AC2"/>
				<stop  offset="0.8109" style="stop-color:#716BB1"/>
				<stop  offset="0.9996" style="stop-color:#6661AB"/>
			</linearGradient>
			<path fill="url(#SVGID_2_)" d="M131.373,129.246c-11.791,6.808-30.91,6.808-42.702,0c-5.85-3.378-8.794-7.796-8.84-12.222v20.899
				c-0.046,4.496,2.898,9,8.84,12.431c11.792,6.808,30.911,6.808,42.702,0c5.941-3.431,8.887-7.935,8.84-12.431v-20.899
				C140.167,121.45,137.223,125.868,131.373,129.246z"/>
		</g>
		<g>
			<path fill="#A5BDE2" d="M131.373,64.423c11.792,6.808,11.792,17.846,0,24.654c-11.791,6.808-30.91,6.808-42.702,0
				c-11.792-6.808-11.792-17.846,0-24.654S119.582,57.615,131.373,64.423z"/>
			<linearGradient id="SVGID_3_" gradientUnits="userSpaceOnUse" x1="135.7031" y1="100.0103" x2="78.9646" y2="84.1235">
				<stop  offset="0" style="stop-color:#738DC8"/>
				<stop  offset="0.0776" style="stop-color:#6D87C4"/>
				<stop  offset="0.4882" style="stop-color:#4E6BB3"/>
				<stop  offset="0.8093" style="stop-color:#395CAA"/>
				<stop  offset="0.9993" style="stop-color:#3156A6"/>
			</linearGradient>
			<path fill="url(#SVGID_3_)" d="M131.373,89.077c-11.791,6.808-30.91,6.808-42.702,0c-5.85-3.377-8.794-7.796-8.84-12.222v20.898
				c-0.046,4.496,2.898,9.001,8.84,12.431c11.792,6.808,30.911,6.808,42.702,0c5.941-3.43,8.887-7.935,8.84-12.431V76.854
				C140.167,81.281,137.223,85.699,131.373,89.077z"/>
		</g>
		<g>
			<linearGradient id="SVGID_4_" gradientUnits="userSpaceOnUse" x1="86.7148" y1="24.9785" x2="108.8426" y2="74.9128">
				<stop  offset="0" style="stop-color:#62CBE6"/>
				<stop  offset="0.2927" style="stop-color:#56AAD5"/>
				<stop  offset="0.6073" style="stop-color:#4C8FC7"/>
				<stop  offset="0.8536" style="stop-color:#467FC0"/>
				<stop  offset="0.9993" style="stop-color:#4379BD"/>
			</linearGradient>
			<path fill="url(#SVGID_4_)" d="M118.395,70.545c0,9.844-6.912,13.834-15.437,8.912c-8.525-4.922-15.437-16.893-15.437-26.737
				s6.911-13.834,15.437-8.912S118.395,60.701,118.395,70.545z"/>
			<path fill="#475BA9" d="M116.855,69.657c0,8.862-6.223,12.455-13.898,8.023S89.06,62.472,89.06,53.609s6.222-12.455,13.897-8.023
				C110.633,50.017,116.855,60.794,116.855,69.657z"/>
			<g>
				<linearGradient id="SVGID_5_" gradientUnits="userSpaceOnUse" x1="100.0229" y1="38.7134" x2="126.7568" y2="78.8141">
					<stop  offset="0" style="stop-color:#62CBE6"/>
					<stop  offset="0.2927" style="stop-color:#56AAD5"/>
					<stop  offset="0.6073" style="stop-color:#4C8FC7"/>
					<stop  offset="0.8536" style="stop-color:#467FC0"/>
					<stop  offset="0.9993" style="stop-color:#4379BD"/>
				</linearGradient>
				<path fill="url(#SVGID_5_)" d="M110.982,39.175c-4.283-2.473-8.157-2.695-10.954-1.057l-7.945,4.587c0,0,0,0,0,0
					c2.791-1.588,6.632-1.347,10.875,1.103c8.525,4.922,15.437,16.893,15.437,26.737c0,4.899-1.713,8.346-4.483,9.969h0.001
					l7.945-4.587c2.816-1.603,4.562-5.069,4.562-10.015C126.419,56.068,119.508,44.098,110.982,39.175z"/>
			</g>
			<path fill="#4379BD" d="M101.918,68.867c-1.517-0.956-2.979-2.192-4.385-3.708v-3.984c0.803,0.936,1.676,1.834,2.619,2.694
				c0.942,0.86,1.77,1.496,2.483,1.908c0.589,0.34,1.02,0.507,1.294,0.501c0.273-0.006,0.41-0.201,0.41-0.585
				c0-0.264-0.099-0.545-0.296-0.843c-0.198-0.298-0.527-0.696-0.987-1.194c-0.461-0.498-1.083-1.137-1.865-1.917
				c-0.88-0.884-1.59-1.716-2.13-2.496c-0.54-0.78-0.934-1.531-1.179-2.253c-0.246-0.722-0.369-1.515-0.369-2.379
				c0-1.32,0.367-2.14,1.102-2.459c0.734-0.32,1.836-0.144,3.305,0.528v-2.663l2.151,1.242v2.639
				c1.378,0.884,2.768,2.078,4.167,3.582L107,60.186c-1.448-1.588-2.753-2.718-3.917-3.39c-0.554-0.32-0.944-0.467-1.169-0.441
				c-0.225,0.026-0.338,0.191-0.338,0.495c0,0.264,0.082,0.529,0.245,0.795c0.163,0.266,0.445,0.621,0.847,1.065
				c0.402,0.444,0.959,1.012,1.673,1.704c1.448,1.428,2.487,2.702,3.118,3.821c0.63,1.12,0.945,2.276,0.945,3.468
				c0,1.344-0.369,2.223-1.106,2.637c-0.738,0.414-1.813,0.313-3.227-0.303v3.211l-2.151-1.242V68.867z"/>
		</g>
		<g>
			<linearGradient id="SVGID_6_" gradientUnits="userSpaceOnUse" x1="100.4546" y1="195.2988" x2="38.8769" y2="178.3723">
				<stop  offset="0" style="stop-color:#62CBE6"/>
				<stop  offset="0.2927" style="stop-color:#56AAD5"/>
				<stop  offset="0.6073" style="stop-color:#4C8FC7"/>
				<stop  offset="0.8536" style="stop-color:#467FC0"/>
				<stop  offset="0.9993" style="stop-color:#4379BD"/>
			</linearGradient>
			<path fill="url(#SVGID_6_)" d="M80.379,194.449c0,9.845-6.911,13.835-15.437,8.912c-8.525-4.922-15.437-16.893-15.437-26.736
				c0-9.845,6.911-13.835,15.437-8.912C73.468,172.635,80.379,184.604,80.379,194.449z"/>
			<path fill="#475BA9" d="M78.84,193.561c0,8.862-6.222,12.455-13.897,8.024c-7.675-4.432-13.897-15.209-13.897-24.071
				s6.222-12.455,13.897-8.023C72.618,173.921,78.84,184.698,78.84,193.561z"/>
			<g>
				<linearGradient id="SVGID_7_" gradientUnits="userSpaceOnUse" x1="85.2017" y1="197.2861" x2="56.0455" y2="154.1445">
					<stop  offset="0" style="stop-color:#62CBE6"/>
					<stop  offset="0.2927" style="stop-color:#56AAD5"/>
					<stop  offset="0.6073" style="stop-color:#4C8FC7"/>
					<stop  offset="0.8536" style="stop-color:#467FC0"/>
					<stop  offset="0.9993" style="stop-color:#4379BD"/>
				</linearGradient>
				<path fill="url(#SVGID_7_)" d="M72.968,163.079c-4.283-2.473-8.158-2.694-10.955-1.057l-7.945,4.588l0,0
					c2.79-1.588,6.632-1.348,10.875,1.103c8.525,4.922,15.437,16.892,15.437,26.736c0,4.899-1.712,8.347-4.482,9.97c0,0,0,0,0-0.001
					l7.946-4.587c2.817-1.604,4.562-5.069,4.562-10.016C88.404,179.972,81.493,168.001,72.968,163.079z"/>
			</g>
			<path fill="#4379BD" d="M63.903,192.771c-1.517-0.956-2.979-2.192-4.385-3.708v-3.983c0.804,0.937,1.677,1.833,2.619,2.694
				c0.942,0.859,1.77,1.495,2.483,1.907c0.589,0.34,1.02,0.507,1.294,0.501c0.273-0.006,0.411-0.201,0.411-0.585
				c0-0.265-0.099-0.545-0.296-0.843s-0.526-0.695-0.987-1.194c-0.46-0.497-1.083-1.137-1.865-1.917
				c-0.88-0.883-1.59-1.715-2.13-2.496c-0.541-0.779-0.934-1.53-1.18-2.252c-0.246-0.723-0.369-1.516-0.369-2.379
				c0-1.32,0.367-2.14,1.101-2.46c0.734-0.319,1.836-0.144,3.305,0.528v-2.662l2.151,1.241v2.639
				c1.378,0.884,2.768,2.077,4.167,3.581l-1.236,2.706c-1.448-1.587-2.754-2.718-3.917-3.39c-0.555-0.32-0.944-0.467-1.169-0.441
				c-0.225,0.027-0.337,0.191-0.337,0.496c0,0.264,0.081,0.528,0.244,0.795c0.163,0.266,0.445,0.621,0.847,1.064
				s0.959,1.012,1.673,1.703c1.448,1.429,2.487,2.702,3.117,3.822s0.946,2.275,0.946,3.468c0,1.344-0.369,2.223-1.107,2.637
				s-1.813,0.313-3.227-0.304v3.211l-2.151-1.241V192.771z"/>
		</g>
	</g>
</g>
<g>
	<g>
		<g>
			<g>
				<g>
					<path fill="#010101" d="M137.275,105.695c-0.029,0.296,0.209,0.553,0.604,0.804c0.112,0.072-0.016-1.602,0.375-1.323
						c0.111,0.081,5.489,4.268,8.491,3.495c0.333-0.086,0.439-0.392,0.448-0.646v-0.675c0.042-0.762-1.091-1.923-2.811-3.599
						c-1.896-1.847-3.105-3-5.938-1.364c-0.811,0.467-1.135,0.817-1.139,1.116L137.275,105.695z"/>
					<path fill="#484A68" d="M144.383,103.751c2.289,2.231,3.539,3.55,2.362,4.229s-3.526-0.344-5.937-2.166
						c-2.112-1.596-5.197-1.792-2.363-3.428C141.277,100.751,142.486,101.904,144.383,103.751z"/>
				</g>
			</g>
			<linearGradient id="SVGID_8_" gradientUnits="userSpaceOnUse" x1="142.9141" y1="100.9624" x2="134.5307" y2="81.6508">
				<stop  offset="0.0708" style="stop-color:#FBC4B7"/>
				<stop  offset="0.2651" style="stop-color:#F5BAA9"/>
				<stop  offset="0.6473" style="stop-color:#EBA286"/>
				<stop  offset="0.9993" style="stop-color:#E28B65"/>
			</linearGradient>
			<path fill="url(#SVGID_8_)" d="M142.101,102.482l-0.149-17.597c-0.008-0.848-0.531-1.605-1.322-1.91l-1.377-0.531l-5.79,3.847
				l2.827,1.438c0,0-0.527,4.882,0.861,9.425c0,0,0.971,1.983,0.779,6.6C137.93,103.754,141.018,104.717,142.101,102.482z"/>
		</g>
		<g>
			<g>
				<g>
					<path fill="#010101" d="M128.824,109.905c-0.029,0.297,0.209,0.553,0.604,0.804c0.113,0.072-0.015-1.603,0.375-1.323
						c0.112,0.081,5.49,4.268,8.492,3.495c0.332-0.086,0.439-0.392,0.448-0.646v-0.675c0.042-0.762-1.091-1.923-2.812-3.6
						c-1.896-1.847-3.104-3-5.938-1.364c-0.81,0.467-1.135,0.817-1.139,1.116L128.824,109.905z"/>
					<path fill="#484A68" d="M135.932,107.961c2.289,2.231,3.539,3.55,2.363,4.229s-3.526-0.343-5.938-2.165
						c-2.111-1.596-5.196-1.792-2.363-3.428C132.828,104.961,134.036,106.114,135.932,107.961z"/>
				</g>
			</g>
			<linearGradient id="SVGID_9_" gradientUnits="userSpaceOnUse" x1="135.3818" y1="105.167" x2="128.6451" y2="90.9451">
				<stop  offset="0.0708" style="stop-color:#FBC4B7"/>
				<stop  offset="0.2651" style="stop-color:#F5BAA9"/>
				<stop  offset="0.6473" style="stop-color:#EBA286"/>
				<stop  offset="0.9993" style="stop-color:#E28B65"/>
			</linearGradient>
			<path fill="url(#SVGID_9_)" d="M133.629,106.896l-0.167-20.605l-6.812,2.208l1.168,3.357c0,0-0.527,4.487,0.86,9.03
				c0,0,0.972,1.983,0.78,6.6C129.459,107.487,131.96,108.909,133.629,106.896z"/>
		</g>
		<path fill="#3E4994" d="M127.535,65.317c0,0,7.588-6.898,2.96-19.171l-3.556,12.74L127.535,65.317z"/>
		<g>
			<linearGradient id="SVGID_10_" gradientUnits="userSpaceOnUse" x1="137.8008" y1="81.3022" x2="129.4172" y2="61.5409">
				<stop  offset="0.0708" style="stop-color:#FBC4B7"/>
				<stop  offset="0.2651" style="stop-color:#F5BAA9"/>
				<stop  offset="0.6473" style="stop-color:#EBA286"/>
				<stop  offset="0.9993" style="stop-color:#E28B65"/>
			</linearGradient>
			<path fill="url(#SVGID_10_)" d="M136.521,82.132L136.521,82.132c-1.177,0.348-2.425-0.331-2.772-1.508l-6.083-20.731
				c-0.348-1.177,0.331-2.425,1.509-2.773l0,0c1.178-0.348,2.425,0.331,2.772,1.508l6.083,20.732
				C138.377,80.536,137.697,81.784,136.521,82.132z"/>
		</g>
		<linearGradient id="SVGID_11_" gradientUnits="userSpaceOnUse" x1="139.0986" y1="85.8247" x2="117.778" y2="82.4502">
			<stop  offset="0.0708" style="stop-color:#8AD5EC"/>
			<stop  offset="0.1938" style="stop-color:#83C6E4"/>
			<stop  offset="0.4371" style="stop-color:#70A6D2"/>
			<stop  offset="0.7742" style="stop-color:#5878B8"/>
			<stop  offset="0.9996" style="stop-color:#475BA9"/>
		</linearGradient>
		<path fill="url(#SVGID_11_)" d="M130.317,76.618l10.312,6.357c0,0-3.589-0.878-12.811,8.881l-10.142-5.852L130.317,76.618z"/>
		<linearGradient id="SVGID_12_" gradientUnits="userSpaceOnUse" x1="131.1611" y1="81.5068" x2="117.6036" y2="64.6155">
			<stop  offset="0.0711" style="stop-color:#FDF8C1"/>
			<stop  offset="0.2249" style="stop-color:#FCEFB0"/>
			<stop  offset="0.529" style="stop-color:#F9E08B"/>
			<stop  offset="0.9511" style="stop-color:#F4CA4B"/>
			<stop  offset="0.9993" style="stop-color:#F3C743"/>
		</linearGradient>
		<path fill="url(#SVGID_12_)" d="M119.012,86.896c0.083,0.053,0.178,0.086,0.285,0.095c1.495,0.116,6.867-1.055,12.242-7.112
			c0.442-0.499,0.729-1.176,0.729-1.742V60.948c0-1.295-0.463-2.204-1.207-2.624l-4.042-2.357c-0.735-0.438-1.756-0.386-2.88,0.263
			l-5.512,3.183c-2.226,1.285-4.047,4.439-4.047,7.009v17.29c0,0.402,0.145,0.698,0.391,0.827L119.012,86.896z"/>
		<path fill="#DD926E" d="M119.623,60.48c-0.01,0.427,0.268,0.856,0.832,1.182c1.113,0.643,2.918,0.643,4.031,0
			c0.564-0.326,0.841-0.755,0.832-1.182v-3.745c0.009-0.427-0.268-0.856-0.832-1.182c-1.113-0.643-2.918-0.643-4.031,0
			c-0.564,0.326-0.842,0.755-0.832,1.182V60.48z"/>
		<linearGradient id="SVGID_13_" gradientUnits="userSpaceOnUse" x1="131.3809" y1="54.665" x2="118.0564" y2="48.8262">
			<stop  offset="0.0708" style="stop-color:#FBC4B7"/>
			<stop  offset="0.2651" style="stop-color:#F5BAA9"/>
			<stop  offset="0.6473" style="stop-color:#EBA286"/>
			<stop  offset="0.9993" style="stop-color:#E28B65"/>
		</linearGradient>
		<circle fill="url(#SVGID_13_)" cx="122.471" cy="50.761" r="7.847"/>
		<path fill="#3E4994" d="M124.796,65.317c0,0-5.837-6.432-1.786-18.342l7.266,2.501c0,0,2.5-6.193-5.718-7.98
			c0,0-5.479-1.191-7.385,3.335c0,0-4.407,0.357-2.739,9.41C114.434,54.241,114.672,62.816,124.796,65.317z"/>
		<path fill="#1F1F1F" d="M117.035,60.712"/>
		<path fill="#659FD6" d="M127.818,91.856"/>
	</g>
	<g>

			<linearGradient id="SVGID_14_" gradientUnits="userSpaceOnUse" x1="33.8618" y1="90.1118" x2="5.7457" y2="80.2249" gradientTransform="matrix(-1 0 0 1 144.9883 0)">
			<stop  offset="0" style="stop-color:#FFFFFF"/>
			<stop  offset="0.6543" style="stop-color:#D5DDF0"/>
			<stop  offset="0.9993" style="stop-color:#C0CDE9"/>
		</linearGradient>
		<polygon fill="url(#SVGID_14_)" points="143.889,82.036 129.107,90.542 117.769,84.36 132.897,75.703 		"/>
		<polygon fill="#C0CDE9" points="143.889,82.036 146.213,67.214 129.805,76.676 129.107,90.542 		"/>
	</g>
	<g>

			<linearGradient id="SVGID_15_" gradientUnits="userSpaceOnUse" x1="7.3691" y1="112.6982" x2="-7.153" y2="130.9632" gradientTransform="matrix(0.7605 -0.6493 0.6493 0.7605 44.4531 -18.8715)">
			<stop  offset="0.0708" style="stop-color:#FBC4B7"/>
			<stop  offset="0.2651" style="stop-color:#F5BAA9"/>
			<stop  offset="0.6473" style="stop-color:#EBA286"/>
			<stop  offset="0.9993" style="stop-color:#E28B65"/>
		</linearGradient>
		<path fill="url(#SVGID_15_)" d="M132.035,82.652L132.035,82.652c-0.934,0.797-2.35,0.686-3.146-0.248l-13.957-16.348
			c-0.797-0.934-0.686-2.35,0.248-3.146l0,0c0.934-0.797,2.35-0.686,3.147,0.249l13.956,16.347
			C133.08,80.439,132.969,81.855,132.035,82.652z"/>
	</g>
</g>
</svg>
