<?xml version="1.0" encoding="utf-8"?>
<!-- Generator: Adobe Illustrator 16.0.0, SVG Export Plug-In . SVG Version: 6.00 Build 0)  -->
<!DOCTYPE svg PUBLIC "-//W3C//DTD SVG 1.1//EN" "http://www.w3.org/Graphics/SVG/1.1/DTD/svg11.dtd">
<svg version="1.1" id="Layer_1" xmlns="http://www.w3.org/2000/svg" xmlns:xlink="http://www.w3.org/1999/xlink" x="0px" y="0px"
	 width="206.723px" height="244.382px" viewBox="0 0 206.723 244.382" enable-background="new 0 0 206.723 244.382"
	 xml:space="preserve">
<g>
	<path fill="#C1D9F1" d="M54.075,232.323l-36.818-21.257c-6.986-4.033-6.986-14.117,0-18.15l123.083-71.063
		c3.242-1.872,7.237-1.872,10.479,0l36.817,21.257c6.986,4.033,6.986,14.117,0,18.15L64.554,232.323
		C61.312,234.195,57.317,234.195,54.075,232.323z"/>
	<g>
		<g>
			<path fill="#8DD5E6" d="M168.36,69.639l-25.085,14.483c-1.83,1.056-5.055,0.923-7.166-0.297l-24.057-13.889
				c-2.111-1.22-2.344-3.081-0.514-4.137l25.085-14.483c1.829-1.056,5.054-0.922,7.165,0.297l24.057,13.889
				C169.958,66.722,170.189,68.583,168.36,69.639z"/>
			<g>
				<linearGradient id="SVGID_1_" gradientUnits="userSpaceOnUse" x1="178.4292" y1="68.2217" x2="134.879" y2="168.3869">
					<stop  offset="0" style="stop-color:#62CBE6"/>
					<stop  offset="0.4043" style="stop-color:#50C0D8"/>
					<stop  offset="0.9996" style="stop-color:#0CB1C2"/>
				</linearGradient>
				<path fill="url(#SVGID_1_)" d="M169.559,159.792V68.176l0,0c0-0.001,0-0.001,0-0.001c-0.112,0.551-0.509,1.065-1.199,1.464
					l-25.085,14.483c-0.88,0.508-2.082,0.733-3.328,0.703v92.263c1.246,0.03,2.448-0.195,3.328-0.703l25.085-14.483
					C169.316,161.35,169.705,160.578,169.559,159.792z"/>
				<linearGradient id="SVGID_2_" gradientUnits="userSpaceOnUse" x1="125.1265" y1="199.6147" x2="125.1265" y2="58.4649">
					<stop  offset="0.0715" style="stop-color:#61CDF6"/>
					<stop  offset="0.1749" style="stop-color:#5FB6D5;stop-opacity:0.8886"/>
					<stop  offset="0.3796" style="stop-color:#548B9C;stop-opacity:0.6682"/>
					<stop  offset="0.6661" style="stop-color:#374F53;stop-opacity:0.3596"/>
					<stop  offset="1" style="stop-color:#070907;stop-opacity:0"/>
				</linearGradient>
				<path fill="url(#SVGID_2_)" d="M136.109,83.826l-24.057-13.889c-1.008-0.582-1.582-1.31-1.713-2.026v91.615
					c-0.187,0.907,0.398,1.915,1.713,2.674l24.057,13.889c1.098,0.634,2.492,0.967,3.838,1V84.826
					C138.601,84.792,137.207,84.458,136.109,83.826z"/>
				<path fill="#0CB1C2" d="M136.109,83.826l-24.057-13.889c-1.008-0.582-1.582-1.31-1.713-2.026v91.615
					c-0.187,0.907,0.398,1.915,1.713,2.674l24.057,13.889c1.098,0.634,2.492,0.967,3.838,1V84.826
					C138.601,84.792,137.207,84.458,136.109,83.826z"/>
			</g>
		</g>
		<g>
			<path fill="#C2BFE0" d="M128.798,124.234l-25.086,14.483c-1.828,1.056-5.053,0.922-7.165-0.297l-24.057-13.89
				c-2.112-1.219-2.343-3.081-0.515-4.137l25.086-14.483c1.829-1.056,5.053-0.922,7.166,0.298l24.057,13.889
				C130.396,121.317,130.627,123.178,128.798,124.234z"/>
			<g>
				<linearGradient id="SVGID_3_" gradientUnits="userSpaceOnUse" x1="137.7886" y1="111.4258" x2="90.8889" y2="215.0742">
					<stop  offset="0" style="stop-color:#9D97CA"/>
					<stop  offset="0.2732" style="stop-color:#908AC2"/>
					<stop  offset="0.8109" style="stop-color:#716BB1"/>
					<stop  offset="0.9996" style="stop-color:#6661AB"/>
				</linearGradient>
				<path fill="url(#SVGID_3_)" d="M129.998,182.567v-59.796v-0.001l0,0c-0.111,0.551-0.508,1.065-1.199,1.464l-25.086,14.483
					c-0.879,0.508-2.082,0.733-3.327,0.702v60.444c1.245,0.03,2.448-0.195,3.327-0.703l25.086-14.482
					C129.755,184.125,130.142,183.353,129.998,182.567z"/>
				<path fill="#6661AB" d="M96.548,138.42l-24.057-13.89c-1.007-0.581-1.582-1.31-1.714-2.026v59.797
					c-0.186,0.907,0.399,1.915,1.714,2.674l24.057,13.889c1.097,0.634,2.492,0.967,3.838,1v-60.444
					C99.04,139.387,97.645,139.053,96.548,138.42z"/>
				<path fill="#6661AB" d="M96.548,138.42l-24.057-13.89c-1.007-0.581-1.582-1.31-1.714-2.026v59.797
					c-0.186,0.907,0.399,1.915,1.714,2.674l24.057,13.889c1.097,0.634,2.492,0.967,3.838,1v-60.444
					C99.04,139.387,97.645,139.053,96.548,138.42z"/>
			</g>
		</g>
		<g>
			<path fill="#A5BDE2" d="M90.11,169.545l-25.085,14.483c-1.829,1.056-5.053,0.922-7.165-0.298l-24.057-13.889
				c-2.112-1.219-2.343-3.081-0.515-4.137l25.086-14.483c1.829-1.056,5.053-0.922,7.165,0.297l24.057,13.89
				C91.708,166.627,91.939,168.489,90.11,169.545z"/>
			<g>
				<linearGradient id="SVGID_4_" gradientUnits="userSpaceOnUse" x1="89.1309" y1="173.1323" x2="44.6222" y2="251.0225">
					<stop  offset="0" style="stop-color:#738DC8"/>
					<stop  offset="0.0776" style="stop-color:#6D87C4"/>
					<stop  offset="0.4882" style="stop-color:#4E6BB3"/>
					<stop  offset="0.8093" style="stop-color:#395CAA"/>
					<stop  offset="0.9993" style="stop-color:#3156A6"/>
				</linearGradient>
				<path fill="url(#SVGID_4_)" d="M91.31,204.908v-36.826l0,0l0,0c-0.113,0.551-0.508,1.064-1.2,1.464l-25.085,14.483
					c-0.879,0.507-2.082,0.732-3.327,0.702v37.473c1.245,0.031,2.448-0.194,3.327-0.702l25.085-14.483
					C91.067,206.466,91.455,205.693,91.31,204.908z"/>
				<linearGradient id="SVGID_5_" gradientUnits="userSpaceOnUse" x1="46.877" y1="233.4253" x2="46.8769" y2="163.1102">
					<stop  offset="0" style="stop-color:#FFE0AD"/>
					<stop  offset="0.4333" style="stop-color:#FCC292"/>
					<stop  offset="0.5859" style="stop-color:#FAB58B"/>
					<stop  offset="0.8861" style="stop-color:#F69579"/>
					<stop  offset="0.9996" style="stop-color:#F58773"/>
				</linearGradient>
				<path fill="url(#SVGID_5_)" d="M57.86,183.731l-24.057-13.889c-1.007-0.582-1.582-1.31-1.714-2.026v36.826
					c-0.186,0.907,0.399,1.914,1.714,2.673l24.057,13.89c1.097,0.633,2.492,0.967,3.838,0.999v-37.473
					C60.352,184.698,58.957,184.365,57.86,183.731z"/>
				<path fill="#3156A6" d="M57.86,183.731l-24.057-13.889c-1.007-0.582-1.582-1.31-1.714-2.026v36.826
					c-0.186,0.907,0.399,1.914,1.714,2.673l24.057,13.89c1.097,0.633,2.492,0.967,3.838,0.999v-37.473
					C60.352,184.698,58.957,184.365,57.86,183.731z"/>
			</g>
		</g>
	</g>
</g>
<g>
	<g>
		<g>
			<linearGradient id="SVGID_6_" gradientUnits="userSpaceOnUse" x1="121.5913" y1="70.9458" x2="128.4506" y2="51.1594">
				<stop  offset="0.0708" style="stop-color:#AC5E74"/>
				<stop  offset="0.5155" style="stop-color:#9D5268"/>
				<stop  offset="0.9993" style="stop-color:#8A4258"/>
			</linearGradient>
			<path fill="url(#SVGID_6_)" d="M121.935,71.597L121.935,71.597c1.244,0.367,2.563-0.35,2.93-1.594l5.221-17.671
				c0.367-1.245-0.35-2.563-1.594-2.931l0,0c-1.244-0.368-2.563,0.35-2.932,1.594l-5.22,17.671
				C119.972,69.911,120.69,71.229,121.935,71.597z"/>
			<path fill="#C0CDE9" d="M123.501,53.415l1.684-5.702c0.568-1.924,2.609-3.034,4.533-2.465l0,0
				c1.924,0.569,3.033,2.608,2.465,4.533l-1.684,5.702C130.5,55.482,127.084,57.992,123.501,53.415z"/>
		</g>
		<g>
			<path fill="#2D2D4F" d="M133.454,70.973c-0.134,0.208-0.323,0.375-0.538,0.498l-12.414,7.103
				c-1.352,0.775-3.258,0.017-4.235-1.688l0,0c-0.978-1.703-0.672-3.732,0.681-4.508l14.281-8.174
				c0.344-0.197,0.775-0.15,1.063,0.122C133.333,65.307,135.464,67.83,133.454,70.973z"/>
		</g>
		<g>
			<path fill="#46476D" d="M141.673,75.183c-0.133,0.209-0.322,0.375-0.537,0.499l-12.414,7.102
				c-1.352,0.775-3.258,0.017-4.236-1.688l0,0c-0.977-1.704-0.671-3.733,0.682-4.509l14.281-8.174
				c0.344-0.197,0.775-0.15,1.063,0.121C141.553,69.517,143.685,72.041,141.673,75.183z"/>
		</g>
		<g>
			<g>
				<path fill="#070907" d="M122.255,96.551c0.104,1.028-2.361,1.668-4.43,2.862c-2.875,1.659-5.972,2.563-7.447,1.711
					c-0.373-0.216-0.551-0.491-0.563-0.81l0.001-1.688c-0.052-0.955,1.368-2.411,3.526-4.514c2.377-2.316,3.893-3.763,7.445-1.711
					c1.016,0.586,1.424,1.024,1.428,1.399L122.255,96.551z"/>
				<path fill="#1B1B37" d="M113.343,94.113c-2.872,2.799-4.439,4.452-2.965,5.304c1.476,0.852,4.422-0.431,7.447-2.716
					c2.648-2.001,6.516-2.248,2.963-4.299C117.236,90.35,115.72,91.796,113.343,94.113z"/>
			</g>
			<path fill="#2D2D4F" d="M115.64,92.083c-0.115-0.22-0.165-0.467-0.165-0.715V74.761c0-1.559,1.607-2.834,3.572-2.834l0,0
				c1.964,0,3.571,1.275,3.571,2.834v18.761c0,0.396-0.256,0.747-0.635,0.861C120.615,94.797,117.365,95.39,115.64,92.083z"/>
		</g>
		<path fill="#FFFFFF" d="M140.439,76.632c-0.088,0.056-0.188,0.092-0.302,0.101c-1.579,0.122-7.257-1.114-12.938-7.517
			c-0.468-0.527-0.771-1.242-0.771-1.841V49.209c0-1.369,0.49-2.33,1.275-2.772l4.271-2.492c0.777-0.463,1.855-0.408,3.044,0.278
			l5.825,3.363c2.353,1.358,4.277,4.691,4.277,7.407v18.272c0,0.426-0.152,0.738-0.412,0.875L140.439,76.632z"/>
		<g>
			<linearGradient id="SVGID_7_" gradientUnits="userSpaceOnUse" x1="143.1147" y1="77.6743" x2="143.1147" y2="55.4366">
				<stop  offset="0.0708" style="stop-color:#AC5E74"/>
				<stop  offset="0.5155" style="stop-color:#9D5268"/>
				<stop  offset="0.9993" style="stop-color:#8A4258"/>
			</linearGradient>
			<path fill="url(#SVGID_7_)" d="M143.115,78.327L143.115,78.327c1.298,0,2.359-1.062,2.359-2.359V57.542
				c0-1.297-1.062-2.359-2.359-2.359l0,0c-1.297,0-2.358,1.062-2.358,2.359v18.426C140.756,77.265,141.818,78.327,143.115,78.327z"
				/>
			<path fill="#C0CDE9" d="M139.466,60.445V54.5c0-2.007,1.643-3.648,3.648-3.648l0,0c2.008,0,3.648,1.642,3.648,3.648v5.945
				C146.763,60.445,144.201,63.82,139.466,60.445z"/>
		</g>
		<g>
			<g>
				<path fill="#070907" d="M130.768,100.314c0.103,1.029-2.362,1.668-4.431,2.862c-2.875,1.66-5.971,2.563-7.446,1.711
					c-0.374-0.215-0.551-0.491-0.563-0.81v-1.688c-0.052-0.956,1.368-2.412,3.526-4.515c2.377-2.316,3.893-3.762,7.446-1.711
					c1.015,0.586,1.423,1.025,1.428,1.399L130.768,100.314z"/>
				<path fill="#1B1B37" d="M121.855,97.875c-2.871,2.799-4.439,4.452-2.964,5.304c1.476,0.853,4.422-0.431,7.446-2.716
					c2.648-2.001,6.518-2.247,2.964-4.299S124.232,95.559,121.855,97.875z"/>
			</g>
			<path fill="#46476D" d="M124.152,95.845c-0.114-0.22-0.164-0.467-0.164-0.714V78.525c0-1.56,1.607-2.835,3.572-2.835l0,0
				c1.964,0,3.571,1.275,3.571,2.835v18.76c0,0.396-0.256,0.747-0.635,0.861C129.126,98.561,125.877,99.154,124.152,95.845z"/>
		</g>
		<path fill="#8A4258" d="M139.793,48.714c0.009,0.452-0.284,0.905-0.88,1.25c-1.177,0.679-3.084,0.679-4.26,0
			c-0.598-0.345-0.89-0.798-0.881-1.25v-3.958c-0.009-0.452,0.283-0.905,0.881-1.25c1.176-0.679,3.083-0.679,4.26,0
			c0.596,0.345,0.889,0.798,0.88,1.249V48.714z"/>
		<linearGradient id="SVGID_8_" gradientUnits="userSpaceOnUse" x1="130.4956" y1="40.5752" x2="145.2698" y2="35.5625">
			<stop  offset="0.0708" style="stop-color:#AC5E74"/>
			<stop  offset="0.5155" style="stop-color:#9D5268"/>
			<stop  offset="0.9993" style="stop-color:#8A4258"/>
		</linearGradient>
		<circle fill="url(#SVGID_8_)" cx="136.783" cy="38.442" r="8.293"/>
		<path fill="#4C476F" d="M141.234,44.941c-0.535-0.539-1.371-1.532-1.709-2.763c-0.018-0.065-0.025-0.134-0.025-0.202v-3.97
			c0-0.79-0.191-1.576-0.607-2.247c-0.354-0.568-0.877-1.073-1.617-1.03c0,0-6.654,2.901-9.146-2.517
			c-0.19-0.413,0.032-0.912,0.476-1.017c0.475-0.113,1.104-0.522,1.799-1.654c0.166-0.27,0.48-0.415,0.788-0.34
			c0.649,0.158,1.841,0.195,2.985-1.101c0.139-0.156,0.34-0.238,0.549-0.234c1.266,0.025,5.646,0.237,8.029,1.959
			c0.018,0.013,0.033,0.024,0.051,0.039c0.51,0.421,8.746,7.438-0.586,15.117C141.929,45.222,141.501,45.209,141.234,44.941z"/>
		<path fill="#AC5E74" d="M139.554,43.101c0,0.989,0.693,1.39,1.551,0.895c0.855-0.494,1.551-1.697,1.551-2.686
			c0-0.989-0.695-1.39-1.551-0.896C140.248,40.909,139.554,42.112,139.554,43.101z"/>
	</g>
	<path fill="#1F1F1F" d="M137.361,40.924c-0.212-1.369-1.161-2.859-2.303-3.519c-1.203-0.694-2.192-0.222-2.331,1.043l-0.759-0.439
		c-0.129-1.431-1.125-3.062-2.334-3.76c-1.297-0.749-2.349-0.142-2.349,1.356s1.052,3.319,2.349,4.067
		c1.209,0.699,2.205,0.217,2.334-1.066l0.753,0.436c0.119,1.438,1.12,3.083,2.337,3.786c1.289,0.745,2.334,0.147,2.346-1.332
		l4.314-2.491v0.816l0.518-0.298v-1.414L137.361,40.924z M131.406,37.986c0,1.129-0.793,1.587-1.771,1.022s-1.772-1.939-1.772-3.07
		c0-1.13,0.794-1.588,1.772-1.023c0.979,0.565,1.771,1.938,1.771,3.068V37.986z M135.058,42.164
		c-0.979-0.565-1.773-1.939-1.773-3.07s0.794-1.588,1.773-1.023c0.979,0.565,1.771,1.939,1.771,3.07S136.037,42.729,135.058,42.164z
		"/>
</g>
</svg>
