<?xml version="1.0" encoding="utf-8"?>
<!-- Generator: Adobe Illustrator 16.0.0, SVG Export Plug-In . SVG Version: 6.00 Build 0)  -->
<!DOCTYPE svg PUBLIC "-//W3C//DTD SVG 1.1//EN" "http://www.w3.org/Graphics/SVG/1.1/DTD/svg11.dtd">
<svg version="1.1" id="Layer_1" xmlns="http://www.w3.org/2000/svg" xmlns:xlink="http://www.w3.org/1999/xlink" x="0px" y="0px"
	  viewBox="0 0 176.471 246.219" >
<g>
	<g>
		<linearGradient id="SVGID_1_" gradientUnits="userSpaceOnUse" x1="105.0425" y1="158.752" x2="111.8345" y2="158.752">
			<stop  offset="0.0708" style="stop-color:#FBC4B7"/>
			<stop  offset="0.2651" style="stop-color:#F5BAA9"/>
			<stop  offset="0.6473" style="stop-color:#EBA286"/>
			<stop  offset="0.9993" style="stop-color:#E28B65"/>
		</linearGradient>
		<path fill="url(#SVGID_1_)" d="M107.041,171.713L107.041,171.713c1.224,0.132,2.333-0.762,2.465-1.985l2.316-21.472
			c0.132-1.224-0.762-2.333-1.985-2.465l0,0c-1.224-0.131-2.333,0.763-2.465,1.986l-2.316,21.472
			C104.923,170.473,105.817,171.582,107.041,171.713z"/>
	</g>
	<g>
		<g>
			<g>
				<path fill="#070907" d="M120.021,201.2c0.03,0.297-0.209,0.554-0.604,0.806c-0.113,0.072,0.015-1.606-0.376-1.326
					c-0.113,0.081-5.504,4.279-8.515,3.504c-0.333-0.086-0.439-0.393-0.449-0.647v-0.677c-0.042-0.764,1.094-1.928,2.819-3.608
					c1.9-1.853,3.111-3.008,5.952-1.368c0.812,0.469,1.138,0.819,1.142,1.118L120.021,201.2z"/>
				<path fill="#383260" d="M112.896,199.251c-2.296,2.236-3.549,3.559-2.37,4.239c1.18,0.682,3.535-0.344,5.953-2.171
					c2.117-1.6,5.21-1.797,2.369-3.437S114.796,197.398,112.896,199.251z"/>
			</g>
		</g>
		<linearGradient id="SVGID_2_" gradientUnits="userSpaceOnUse" x1="118.1665" y1="198.2295" x2="118.1665" y2="176.8598">
			<stop  offset="0.0708" style="stop-color:#FBC4B7"/>
			<stop  offset="0.2651" style="stop-color:#F5BAA9"/>
			<stop  offset="0.6473" style="stop-color:#EBA286"/>
			<stop  offset="0.9993" style="stop-color:#E28B65"/>
		</linearGradient>
		<path fill="url(#SVGID_2_)" d="M115.204,198.183l0.168-20.659l5.713,1.853l-0.055,3.728c0,0,0.529,4.499-0.862,9.055
			c0,0-0.975,1.987-0.782,6.616C119.385,198.774,116.877,200.201,115.204,198.183z"/>
	</g>
	<g>
		<g>
			<g>
				<path fill="#070907" d="M113.43,195.784c0.03,0.298-0.209,0.555-0.604,0.807c-0.113,0.072,0.015-1.606-0.376-1.326
					c-0.112,0.08-5.504,4.278-8.514,3.504c-0.334-0.086-0.44-0.394-0.45-0.647v-0.677c-0.041-0.765,1.095-1.929,2.819-3.609
					c1.9-1.852,3.112-3.008,5.952-1.367c0.813,0.468,1.138,0.819,1.142,1.118L113.43,195.784z"/>
				<path fill="#383260" d="M106.305,193.835c-2.296,2.237-3.549,3.56-2.369,4.24c1.179,0.681,3.535-0.345,5.952-2.171
					c2.117-1.6,5.21-1.797,2.369-3.437C109.417,190.827,108.206,191.983,106.305,193.835z"/>
			</g>
		</g>
		<linearGradient id="SVGID_3_" gradientUnits="userSpaceOnUse" x1="112.1118" y1="190.4756" x2="112.1118" y2="174.7643">
			<stop  offset="0.0708" style="stop-color:#FBC4B7"/>
			<stop  offset="0.2651" style="stop-color:#F5BAA9"/>
			<stop  offset="0.6473" style="stop-color:#EBA286"/>
			<stop  offset="0.9993" style="stop-color:#E28B65"/>
		</linearGradient>
		<path fill="url(#SVGID_3_)" d="M108.613,192.768l0.168-20.659l6.83,2.214l-1.171,3.366c0,0,0.528,4.499-0.863,9.054
			c0,0-0.975,1.988-0.781,6.617C112.795,193.359,110.287,194.785,108.613,192.768z"/>
	</g>
	<linearGradient id="SVGID_4_" gradientUnits="userSpaceOnUse" x1="107.272" y1="173.0215" x2="124.6138" y2="173.0215">
		<stop  offset="0.0704" style="stop-color:#F37221"/>
		<stop  offset="0.1628" style="stop-color:#E96E2E"/>
		<stop  offset="0.3457" style="stop-color:#D5654B"/>
		<stop  offset="0.6018" style="stop-color:#B4566C"/>
		<stop  offset="0.9182" style="stop-color:#88438E"/>
		<stop  offset="0.9996" style="stop-color:#7C3F98"/>
	</linearGradient>
	<path fill="url(#SVGID_4_)" d="M124.614,172.702v7.628c0,0-8.939,3.019-17.342-7.628v-7.384L124.614,172.702z"/>
	<linearGradient id="SVGID_5_" gradientUnits="userSpaceOnUse" x1="107.0767" y1="160.0469" x2="124.8091" y2="160.0469">
		<stop  offset="0.0704" style="stop-color:#FEFDEC"/>
		<stop  offset="0.5207" style="stop-color:#EAE9E1"/>
		<stop  offset="0.9996" style="stop-color:#D4D4D4"/>
	</linearGradient>
	<path fill="url(#SVGID_5_)" d="M120.367,175.643c-0.083,0.053-0.179,0.086-0.286,0.095c-1.499,0.116-6.885-1.058-12.273-7.13
		c-0.444-0.501-0.73-1.18-0.73-1.747v-17.233c0-1.299,0.464-2.211,1.21-2.631l4.052-2.363c0.737-0.439,1.761-0.387,2.888,0.264
		l5.526,3.19c2.231,1.289,4.057,4.451,4.057,7.027v17.335c0,0.403-0.145,0.7-0.391,0.829L120.367,175.643z"/>
	<g>
		<linearGradient id="SVGID_6_" gradientUnits="userSpaceOnUse" x1="126.0825" y1="177.2373" x2="120.0051" y2="152.2991">
			<stop  offset="0.0708" style="stop-color:#FBC4B7"/>
			<stop  offset="0.2651" style="stop-color:#F5BAA9"/>
			<stop  offset="0.6473" style="stop-color:#EBA286"/>
			<stop  offset="0.9993" style="stop-color:#E28B65"/>
		</linearGradient>
		<path fill="url(#SVGID_6_)" d="M122.906,177.211L122.906,177.211c1.23,0,2.237-1.007,2.237-2.237v-21.551
			c0-1.23-1.007-2.237-2.237-2.237l0,0c-1.231,0-2.238,1.007-2.238,2.237v21.551C120.667,176.204,121.674,177.211,122.906,177.211z"
			/>
	</g>
	<path fill="#E28B65" d="M118.798,149.157c0.009,0.429-0.269,0.858-0.835,1.186c-1.116,0.644-2.925,0.644-4.041,0
		c-0.566-0.327-0.844-0.757-0.835-1.186v-3.755c-0.009-0.429,0.269-0.858,0.835-1.186c1.116-0.644,2.925-0.644,4.041,0
		c0.566,0.327,0.844,0.757,0.835,1.186V149.157z"/>
	<g>
		<path fill="#884B9D" d="M108.679,137.271l-2.824,10.962c-0.264,1.022,0.755,1.906,1.729,1.5l6.501-2.704
			c0.563-0.233,0.882-0.831,0.764-1.429l-2.13-10.783c-0.226-1.143-1.737-1.414-2.346-0.42l-1.546,2.525
			C108.761,137.03,108.711,137.147,108.679,137.271z"/>
		<path fill="#F9AB83" d="M118.571,143.832c0,0.938,0.659,1.318,1.472,0.85c0.813-0.47,1.471-1.61,1.471-2.549
			c0-0.938-0.658-1.318-1.471-0.849C119.23,141.753,118.571,142.894,118.571,143.832z"/>
		<linearGradient id="SVGID_7_" gradientUnits="userSpaceOnUse" x1="109.8628" y1="143.5088" x2="121.5994" y2="135.5446">
			<stop  offset="0.0708" style="stop-color:#FBC4B7"/>
			<stop  offset="0.2651" style="stop-color:#F5BAA9"/>
			<stop  offset="0.6473" style="stop-color:#EBA286"/>
			<stop  offset="0.9993" style="stop-color:#E28B65"/>
		</linearGradient>
		<circle fill="url(#SVGID_7_)" cx="115.982" cy="139.355" r="7.868"/>
		<path fill="#884B9D" d="M123.63,140.405c0,0-6.647,3.646-9.888-5.838c0,0-1.732,4.006-6.057,3.121c0,0,0-6.236,6.437-7.446
			C114.123,130.242,125.502,129.105,123.63,140.405z"/>
		<path fill="#884B9D" d="M119.967,140.718l-2.824,10.962c-0.264,1.022,0.755,1.905,1.729,1.5l6.501-2.704
			c0.563-0.233,0.882-0.831,0.764-1.429l-2.13-10.783c-0.226-1.144-1.737-1.414-2.346-0.421l-1.546,2.525
			C120.049,140.477,120,140.595,119.967,140.718z"/>
	</g>
</g>
<g>
	<g>
		<linearGradient id="SVGID_8_" gradientUnits="userSpaceOnUse" x1="65.4971" y1="150.6885" x2="63.0334" y2="130.979">
			<stop  offset="0.0708" style="stop-color:#FBC4B7"/>
			<stop  offset="0.2651" style="stop-color:#F5BAA9"/>
			<stop  offset="0.6473" style="stop-color:#EBA286"/>
			<stop  offset="0.9993" style="stop-color:#E28B65"/>
		</linearGradient>
		<path fill="url(#SVGID_8_)" d="M65.375,151.229L65.375,151.229c-1.208,0.13-2.303-0.752-2.433-1.96l-1.845-17.157
			c-0.13-1.208,0.753-2.304,1.961-2.433l0,0c1.208-0.13,2.303,0.752,2.433,1.96l1.845,17.157
			C67.466,150.006,66.583,151.101,65.375,151.229z"/>
		<path fill="#283777" d="M66.983,134.215l-0.595-5.536c-0.201-1.868-1.895-3.233-3.763-3.032l0,0
			c-1.869,0.201-3.233,1.895-3.032,3.763l0.595,5.536C60.188,134.945,62.914,137.831,66.983,134.215z"/>
	</g>
	<g>
		<g>
			<path fill="#070907" d="M51.458,178.899c-0.097,0.964,2.212,1.563,4.149,2.681c2.691,1.555,5.592,2.4,6.974,1.603
				c0.35-0.202,0.516-0.46,0.526-0.759v-1.58c0.049-0.896-1.282-2.259-3.303-4.228c-2.226-2.17-3.646-3.524-6.974-1.603
				c-0.95,0.549-1.332,0.959-1.337,1.311L51.458,178.899z"/>
			<path fill="#1B1B37" d="M59.805,176.616c2.689,2.62,4.157,4.169,2.776,4.967c-1.382,0.798-4.142-0.403-6.974-2.543
				c-2.48-1.874-6.104-2.105-2.776-4.026C56.16,173.092,57.58,174.446,59.805,176.616z"/>
		</g>
		<linearGradient id="SVGID_9_" gradientUnits="userSpaceOnUse" x1="54.4629" y1="177.2334" x2="54.4629" y2="149.6132">
			<stop  offset="0.0711" style="stop-color:#475BA9"/>
			<stop  offset="0.3237" style="stop-color:#3F4E94"/>
			<stop  offset="0.8208" style="stop-color:#2D316D"/>
			<stop  offset="0.9993" style="stop-color:#272660"/>
		</linearGradient>
		<path fill="url(#SVGID_9_)" d="M57.654,174.715c0.107-0.206,0.154-0.438,0.154-0.67v-23.086c0-1.46-1.505-2.654-3.345-2.654l0,0
			c-1.841,0-3.346,1.194-3.346,2.654v25.104c0,0.37,0.24,0.699,0.595,0.807C52.996,177.258,56.039,177.813,57.654,174.715z"/>
	</g>
	<g>
		<g>
			<path fill="#070907" d="M58.699,173.561c-0.097,0.963,2.213,1.562,4.149,2.681c2.692,1.554,5.592,2.399,6.974,1.603
				c0.35-0.202,0.516-0.461,0.527-0.759l-0.001-1.581c0.049-0.895-1.281-2.258-3.302-4.228c-2.227-2.169-3.646-3.523-6.974-1.603
				c-0.951,0.55-1.333,0.96-1.338,1.311L58.699,173.561z"/>
			<path fill="#1B1B37" d="M67.046,171.276c2.689,2.621,4.157,4.17,2.775,4.968c-1.382,0.797-4.142-0.404-6.974-2.544
				c-2.48-1.874-6.104-2.104-2.775-4.026C63.4,167.753,64.82,169.107,67.046,171.276z"/>
		</g>
		<linearGradient id="SVGID_10_" gradientUnits="userSpaceOnUse" x1="61.7036" y1="173.4023" x2="61.7036" y2="145.4312">
			<stop  offset="0.0711" style="stop-color:#475BA9"/>
			<stop  offset="0.3237" style="stop-color:#3F4E94"/>
			<stop  offset="0.8208" style="stop-color:#2D316D"/>
			<stop  offset="0.9993" style="stop-color:#272660"/>
		</linearGradient>
		<path fill="url(#SVGID_10_)" d="M64.894,169.375c0.107-0.205,0.155-0.438,0.155-0.669v-23.087c0-1.46-1.506-2.654-3.346-2.654l0,0
			c-1.84,0-3.346,1.194-3.346,2.654v25.104c0,0.371,0.24,0.7,0.595,0.808C60.236,171.918,63.279,172.474,64.894,169.375z"/>
	</g>
	<linearGradient id="SVGID_11_" gradientUnits="userSpaceOnUse" x1="70.6631" y1="131.3398" x2="48.831" y2="144.3625">
		<stop  offset="0.0711" style="stop-color:#659FD6"/>
		<stop  offset="0.2202" style="stop-color:#6194CB"/>
		<stop  offset="0.5152" style="stop-color:#5578B5"/>
		<stop  offset="0.9245" style="stop-color:#415098"/>
		<stop  offset="0.9993" style="stop-color:#3E4994"/>
	</linearGradient>
	<path fill="url(#SVGID_11_)" d="M52.22,155.109c0.082,0.052,0.177,0.085,0.283,0.093c1.479,0.115,6.797-1.043,12.116-7.039
		c0.438-0.493,0.721-1.163,0.721-1.724v-17.014c0-1.282-0.458-2.182-1.194-2.597l-4-2.333c-0.728-0.434-1.738-0.382-2.851,0.261
		l-5.456,3.149c-2.202,1.271-4.005,4.394-4.005,6.938v17.112c0,0.398,0.143,0.691,0.386,0.819L52.22,155.109z"/>
	<path fill="#E5A89C" d="M53.768,128.963c-0.008,0.423,0.266,0.847,0.825,1.17c1.102,0.636,2.888,0.636,3.989,0
		c0.559-0.323,0.833-0.747,0.824-1.17v-3.707c0.009-0.423-0.266-0.848-0.824-1.171c-1.102-0.636-2.888-0.636-3.989,0
		c-0.56,0.323-0.833,0.748-0.825,1.171V128.963z"/>
	<linearGradient id="SVGID_12_" gradientUnits="userSpaceOnUse" x1="61.8667" y1="125.9414" x2="51.7937" y2="113.3502">
		<stop  offset="0.0708" style="stop-color:#FBC4B7"/>
		<stop  offset="0.2651" style="stop-color:#F5BAA9"/>
		<stop  offset="0.6473" style="stop-color:#EBA286"/>
		<stop  offset="0.9993" style="stop-color:#E28B65"/>
	</linearGradient>
	<circle fill="url(#SVGID_12_)" cx="56.587" cy="119.343" r="7.767"/>
	<g>
		<linearGradient id="SVGID_13_" gradientUnits="userSpaceOnUse" x1="49.7139" y1="155.0176" x2="49.7139" y2="135.3006">
			<stop  offset="0.0708" style="stop-color:#FBC4B7"/>
			<stop  offset="0.2651" style="stop-color:#F5BAA9"/>
			<stop  offset="0.6473" style="stop-color:#EBA286"/>
			<stop  offset="0.9993" style="stop-color:#E28B65"/>
		</linearGradient>
		<path fill="url(#SVGID_13_)" d="M49.714,156.695L49.714,156.695c-1.216,0-2.21-0.994-2.21-2.209v-17.257
			c0-1.215,0.994-2.209,2.21-2.209l0,0c1.215,0,2.209,0.994,2.209,2.209v17.257C51.923,155.701,50.929,156.695,49.714,156.695z"/>
		<path fill="#283777" d="M53.131,139.949v-5.567c0-1.88-1.538-3.417-3.417-3.417l0,0c-1.88,0-3.417,1.537-3.417,3.417v5.567
			C46.297,139.949,48.698,143.109,53.131,139.949z"/>
	</g>
	<path fill-rule="evenodd" clip-rule="evenodd" fill="#E48925" d="M50.107,110.158c-6.636,2.278-3.336,11.973,1.491,15.469
		c2.36-1.29-0.51-3.599,2.711-1.992c0.641-3.122-0.8-2.171,0.073-6.096c3.375,1.76,9.944-0.374,10.964-3.627
		c-1.176-0.521-2.407-3.86-5.157-5.085C56.651,107.251,52.122,107.947,50.107,110.158z"/>
	<path fill="#FBC4B7" d="M53.993,123.705c0,0.927-0.649,1.302-1.452,0.839c-0.802-0.463-1.452-1.59-1.452-2.516
		s0.65-1.302,1.452-0.839C53.343,121.653,53.993,122.779,53.993,123.705z"/>
</g>
<g>
	<g>
		<path fill="#FFFFFF" d="M106.942,170.868c13.582,7.842,13.582,20.555,0,28.396c-13.581,7.841-35.602,7.841-49.184,0
			c-13.581-7.842-13.581-20.555,0-28.396C71.34,163.027,93.361,163.027,106.942,170.868z"/>
		<linearGradient id="SVGID_14_" gradientUnits="userSpaceOnUse" x1="117.4663" y1="207.5693" x2="46.2572" y2="206.5837">
			<stop  offset="0" style="stop-color:#E6F2FB"/>
			<stop  offset="0.0155" style="stop-color:#E5F1FA"/>
			<stop  offset="0.633" style="stop-color:#C9D6EE"/>
			<stop  offset="0.9993" style="stop-color:#C0CDE9"/>
		</linearGradient>
		<path fill="url(#SVGID_14_)" d="M106.942,199.265c-13.581,7.841-35.602,7.841-49.184,0c-6.737-3.891-10.128-8.979-10.181-14.078
			v24.071c-0.054,5.179,3.337,10.367,10.181,14.318c13.582,7.841,35.603,7.841,49.184,0c6.845-3.951,10.235-9.14,10.182-14.318
			v-24.071C117.071,190.285,113.68,195.374,106.942,199.265z"/>
		<linearGradient id="SVGID_15_" gradientUnits="userSpaceOnUse" x1="48.2222" y1="177.6318" x2="113.221" y2="179.0099">
			<stop  offset="0" style="stop-color:#62CBE6"/>
			<stop  offset="0.2927" style="stop-color:#56AAD5"/>
			<stop  offset="0.6073" style="stop-color:#4C8FC7"/>
			<stop  offset="0.8536" style="stop-color:#467FC0"/>
			<stop  offset="0.9993" style="stop-color:#4379BD"/>
		</linearGradient>
		<path fill="url(#SVGID_15_)" d="M60.998,179.532c11.793-6.809,30.913-6.809,42.705,0c4.393,2.535,7.146,5.658,8.267,8.931
			c1.888-5.514-0.866-11.452-8.267-15.725c-11.792-6.809-30.912-6.809-42.705,0c-7.4,4.273-10.154,10.211-8.266,15.725
			C53.852,185.19,56.606,182.067,60.998,179.532z"/>
	</g>
	<g>
		<g>
			<linearGradient id="SVGID_16_" gradientUnits="userSpaceOnUse" x1="96.8584" y1="76.8472" x2="68.9348" y2="157.1851">
				<stop  offset="0" style="stop-color:#62CBE6"/>
				<stop  offset="0.2927" style="stop-color:#56AAD5"/>
				<stop  offset="0.6073" style="stop-color:#4C8FC7"/>
				<stop  offset="0.8536" style="stop-color:#467FC0"/>
				<stop  offset="0.9993" style="stop-color:#4379BD"/>
			</linearGradient>
			<path fill="url(#SVGID_16_)" d="M64.025,148.66c-0.132,0-0.26-0.057-0.349-0.162c-0.122-0.144-0.144-0.349-0.053-0.515
				l15.92-29.176l-15.82-13.899c-0.11-0.097-0.167-0.24-0.154-0.385c0.013-0.146,0.094-0.276,0.219-0.352l35.544-21.498
				c0.179-0.107,0.404-0.082,0.554,0.061c0.149,0.144,0.185,0.369,0.085,0.551l-19.272,35.318l19.173,16.845
				c0.123,0.108,0.179,0.272,0.147,0.433c-0.031,0.159-0.145,0.29-0.298,0.344l-35.544,12.41
				C64.126,148.652,64.075,148.66,64.025,148.66z M80.249,119.427l-15.253,27.951l33.682-11.759L80.249,119.427z M64.796,104.633
				l15.196,13.351l18.362-33.648L64.796,104.633z"/>
			<radialGradient id="SVGID_17_" cx="100.4839" cy="80.0903" r="6.6893" gradientUnits="userSpaceOnUse">
				<stop  offset="0" style="stop-color:#62CBE6"/>
				<stop  offset="0.4043" style="stop-color:#50C0D8"/>
				<stop  offset="0.9996" style="stop-color:#0CB1C2"/>
			</radialGradient>
			<circle fill="url(#SVGID_17_)" cx="99.568" cy="83.065" r="5.031"/>
			<radialGradient id="SVGID_18_" cx="65.6274" cy="102.0464" r="7.6708" gradientUnits="userSpaceOnUse">
				<stop  offset="0" style="stop-color:#9D97CA"/>
				<stop  offset="0.2732" style="stop-color:#908AC2"/>
				<stop  offset="0.8109" style="stop-color:#716BB1"/>
				<stop  offset="0.9996" style="stop-color:#6661AB"/>
			</radialGradient>
			<circle fill="url(#SVGID_18_)" cx="64.025" cy="104.564" r="5.031"/>
			<radialGradient id="SVGID_19_" cx="81.8433" cy="115.7295" r="6.4723" gradientUnits="userSpaceOnUse">
				<stop  offset="0" style="stop-color:#62CBE6"/>
				<stop  offset="0.4043" style="stop-color:#50C0D8"/>
				<stop  offset="0.9996" style="stop-color:#0CB1C2"/>
			</radialGradient>
			<circle fill="url(#SVGID_19_)" cx="80.017" cy="118.697" r="5.031"/>
			<radialGradient id="SVGID_20_" cx="100.938" cy="133.9668" r="6.0976" gradientUnits="userSpaceOnUse">
				<stop  offset="0" style="stop-color:#738DC8"/>
				<stop  offset="0.0776" style="stop-color:#6D87C4"/>
				<stop  offset="0.4882" style="stop-color:#4E6BB3"/>
				<stop  offset="0.8093" style="stop-color:#395CAA"/>
				<stop  offset="0.9993" style="stop-color:#3156A6"/>
			</radialGradient>
			<circle fill="url(#SVGID_20_)" cx="99.568" cy="135.793" r="5.031"/>
			<radialGradient id="SVGID_21_" cx="65.8516" cy="145.2363" r="6.9407" gradientUnits="userSpaceOnUse">
				<stop  offset="0" style="stop-color:#9D97CA"/>
				<stop  offset="0.2732" style="stop-color:#908AC2"/>
				<stop  offset="0.8109" style="stop-color:#716BB1"/>
				<stop  offset="0.9996" style="stop-color:#6661AB"/>
			</radialGradient>
			<circle fill="url(#SVGID_21_)" cx="64.025" cy="148.203" r="5.031"/>
		</g>
		<g>
			<linearGradient id="SVGID_22_" gradientUnits="userSpaceOnUse" x1="82.3506" y1="14.2856" x2="82.3506" y2="186.0649">
				<stop  offset="0" style="stop-color:#FFFFFF;stop-opacity:0"/>
				<stop  offset="1" style="stop-color:#62CBE6"/>
			</linearGradient>
			<path fill="url(#SVGID_22_)" d="M52.182,184.379c-0.319,4.688,2.616,9.437,8.815,13.016c11.793,6.809,30.913,6.809,42.705,0
				c6.199-3.579,9.135-8.327,8.816-13.016V46.89c0.318-4.688-2.617-9.437-8.816-13.016c-11.792-6.809-30.912-6.809-42.705,0
				c-6.199,3.579-9.135,8.327-8.815,13.016V184.379z"/>
			<linearGradient id="SVGID_23_" gradientUnits="userSpaceOnUse" x1="82.3506" y1="227.4844" x2="82.3506" y2="54.8662">
				<stop  offset="0" style="stop-color:#FFFFFF"/>
				<stop  offset="0.1209" style="stop-color:#C3C0CB;stop-opacity:0.879"/>
				<stop  offset="0.3661" style="stop-color:#777289;stop-opacity:0.6337"/>
				<stop  offset="0.5853" style="stop-color:#484562;stop-opacity:0.4143"/>
				<stop  offset="0.7704" style="stop-color:#2A2A4C;stop-opacity:0.229"/>
				<stop  offset="0.9143" style="stop-color:#171A3F;stop-opacity:0.0851"/>
				<stop  offset="0.9993" style="stop-color:#10133B;stop-opacity:0"/>
			</linearGradient>
			<path fill="url(#SVGID_23_)" d="M61.568,178c-0.22,4.93,1.803,9.922,6.073,13.686c8.124,7.159,21.295,7.159,29.419,0
				c4.271-3.764,6.292-8.756,6.073-13.686l9.386-137.023c0.318-4.688-2.617-9.437-8.816-13.016c-11.792-6.809-30.912-6.809-42.705,0
				c-6.199,3.58-9.135,8.328-8.815,13.016L61.568,178z"/>
		</g>
	</g>
</g>
<g>
	<g>
		<path fill="#010101" d="M56.454,222.997c0.053,0.919-1.335,2.208-3.446,3.428c-2.81,1.622-3.805,3.677-7.277,1.672
			c-0.993-0.573-1.409-1.029-1.434-1.427v-2.159c-0.098-1.005,2.311-1.63,4.33-2.796c2.81-1.622,5.836-2.504,7.277-1.672
			c0.366,0.211,0.539,0.482,0.55,0.795V222.997z"/>
		<path fill="#2F205E" d="M53.007,224.244c2.81-1.622,4.338-3.369,2.896-4.201s-4.468,0.05-7.277,1.672
			c-2.809,1.622-6.369,2.196-2.896,4.201S50.198,225.866,53.007,224.244z"/>
	</g>
	<g>
		<path fill="#010101" d="M48.645,217.618c0.053,0.919-1.334,2.209-3.446,3.428c-2.81,1.622-3.805,3.678-7.277,1.672
			c-0.993-0.573-1.409-1.029-1.434-1.427v-2.159c-0.098-1.005,2.311-1.629,4.331-2.796c2.809-1.622,5.835-2.504,7.276-1.672
			c0.366,0.211,0.539,0.482,0.55,0.795V217.618z"/>
		<path fill="#2F205E" d="M45.199,218.865c2.81-1.622,4.338-3.369,2.896-4.201s-4.468,0.05-7.276,1.672
			c-2.81,1.622-6.369,2.197-2.897,4.201C41.394,222.542,42.389,220.487,45.199,218.865z"/>
	</g>
	<g>

			<linearGradient id="SVGID_24_" gradientUnits="userSpaceOnUse" x1="110.9487" y1="353.1611" x2="118.5073" y2="365.8071" gradientTransform="matrix(0.8905 -0.455 -0.455 -0.8905 99.0366 559.5576)">
			<stop  offset="0.0708" style="stop-color:#FBC4B7"/>
			<stop  offset="0.2651" style="stop-color:#F5BAA9"/>
			<stop  offset="0.6473" style="stop-color:#EBA286"/>
			<stop  offset="0.9993" style="stop-color:#E28B65"/>
		</linearGradient>
		<path fill="url(#SVGID_24_)" d="M36.887,195.374L36.887,195.374c1.263,0.107,2.385-0.838,2.492-2.102l1.525-17.942
			c0.107-1.264-0.838-2.385-2.102-2.492l0,0c-1.264-0.107-2.385,0.838-2.492,2.102l-1.526,17.942
			C34.677,194.146,35.624,195.267,36.887,195.374z"/>
		<path fill="#D6E3E5" d="M34.815,177.66l0.492-5.789c0.166-1.954,1.9-3.417,3.854-3.251l0,0c1.954,0.167,3.417,1.901,3.251,3.855
			l-0.492,5.789C41.92,178.265,39.144,181.338,34.815,177.66z"/>
	</g>
	<g>

			<linearGradient id="SVGID_25_" gradientUnits="userSpaceOnUse" x1="1070.3149" y1="224.1563" x2="1070.3149" y2="203.6434" gradientTransform="matrix(-1 0 0 1 1118.04 0)">
			<stop  offset="0.0708" style="stop-color:#6B9CD3"/>
			<stop  offset="0.2071" style="stop-color:#638EC4"/>
			<stop  offset="0.4767" style="stop-color:#5070A7"/>
			<stop  offset="0.8505" style="stop-color:#334883"/>
			<stop  offset="0.9996" style="stop-color:#283777"/>
		</linearGradient>
		<path fill="url(#SVGID_25_)" d="M44.395,223.525c-0.111-0.214-0.161-0.456-0.161-0.698v-24.091c0-1.523,1.571-2.77,3.491-2.77l0,0
			c1.92,0,3.491,1.246,3.491,2.77v26.196c0,0.387-0.25,0.729-0.62,0.842C49.256,226.18,46.082,226.759,44.395,223.525z"/>
	</g>
	<g>

			<linearGradient id="SVGID_26_" gradientUnits="userSpaceOnUse" x1="1077.8706" y1="218.6768" x2="1077.8706" y2="196.5844" gradientTransform="matrix(-1 0 0 1 1118.04 0)">
			<stop  offset="0.0708" style="stop-color:#475BA9"/>
			<stop  offset="0.3235" style="stop-color:#3F4E94"/>
			<stop  offset="0.821" style="stop-color:#2D316D"/>
			<stop  offset="0.9996" style="stop-color:#272660"/>
		</linearGradient>
		<path fill="url(#SVGID_26_)" d="M36.839,217.954c-0.111-0.215-0.161-0.456-0.161-0.698v-24.092c0-1.522,1.571-2.77,3.491-2.77l0,0
			c1.92,0,3.491,1.247,3.491,2.77v26.196c0,0.387-0.251,0.73-0.62,0.843C41.701,220.607,38.526,221.187,36.839,217.954z"/>
	</g>

		<linearGradient id="SVGID_27_" gradientUnits="userSpaceOnUse" x1="381.8179" y1="185.5693" x2="358.9389" y2="188.0611" gradientTransform="matrix(-1 0 0 1 414.8623 0)">
		<stop  offset="0.0711" style="stop-color:#BBE4EE"/>
		<stop  offset="0.2662" style="stop-color:#A9DEED"/>
		<stop  offset="0.6499" style="stop-color:#75D0EB"/>
		<stop  offset="0.9993" style="stop-color:#1FC2E9"/>
	</linearGradient>
	<path fill="url(#SVGID_27_)" d="M50.065,203.067c-0.085,0.054-0.184,0.089-0.295,0.098c-1.543,0.119-7.092-1.09-12.644-7.346
		c-0.457-0.516-0.752-1.215-0.752-1.8v-17.753c0-1.339,0.479-2.277,1.246-2.71l4.175-2.436c0.759-0.451,1.813-0.397,2.975,0.272
		l5.692,3.287c2.299,1.327,4.18,4.585,4.18,7.239v17.857c0,0.416-0.148,0.721-0.402,0.854L50.065,203.067z"/>
	<path fill="#DD926E" d="M48.45,175.783c0.009,0.441-0.277,0.884-0.86,1.221c-1.149,0.663-3.013,0.663-4.163,0
		c-0.583-0.337-0.869-0.779-0.86-1.221v-3.869c-0.009-0.44,0.277-0.884,0.86-1.221c1.15-0.663,3.014-0.663,4.163,0
		c0.583,0.337,0.869,0.779,0.86,1.221V175.783z"/>

		<linearGradient id="SVGID_28_" gradientUnits="userSpaceOnUse" x1="1076.5464" y1="167.7959" x2="1061.2902" y2="159.9983" gradientTransform="matrix(-1 0 0 1 1118.04 0)">
		<stop  offset="0.0708" style="stop-color:#FBC4B7"/>
		<stop  offset="0.2651" style="stop-color:#F5BAA9"/>
		<stop  offset="0.6473" style="stop-color:#EBA286"/>
		<stop  offset="0.9993" style="stop-color:#E28B65"/>
	</linearGradient>
	<circle fill="url(#SVGID_28_)" cx="45.508" cy="165.744" r="8.104"/>
	<g>

			<linearGradient id="SVGID_29_" gradientUnits="userSpaceOnUse" x1="100.4624" y1="-550.73" x2="100.4624" y2="-573.5192" gradientTransform="matrix(0.7828 0.6222 0.6222 -0.7828 329.2409 -331.523)">
			<stop  offset="0.0708" style="stop-color:#FBC4B7"/>
			<stop  offset="0.2651" style="stop-color:#F5BAA9"/>
			<stop  offset="0.6473" style="stop-color:#EBA286"/>
			<stop  offset="0.9993" style="stop-color:#E28B65"/>
		</linearGradient>
		<path fill="url(#SVGID_29_)" d="M65.5,160.821L65.5,160.821c-1.017-0.757-2.468-0.545-3.226,0.472l-10.132,14.355
			c-0.758,1.017-0.546,2.468,0.471,3.226l0,0c1.018,0.758,2.469,0.545,3.227-0.472l10.132-14.354
			C66.73,163.03,66.518,161.579,65.5,160.821z"/>
		<path fill="#FFFFFF" d="M58.546,176.879l-3.471,4.66c-1.172,1.572-3.417,1.9-4.989,0.729l0,0c-1.573-1.172-1.901-3.417-0.729-4.99
			l3.47-4.659C52.827,172.619,56.806,171.471,58.546,176.879z"/>
	</g>
	<path fill-rule="evenodd" clip-rule="evenodd" fill="#B16027" d="M40.94,173.134c2.556,1.489,4.51,0.357,5.204-0.722
		c1.749-2.711,2.039-0.902,3.081-2.179c1.366-2.244,1.06-5.303,2.953-6.716c2.719-2.029,1.974-6.068-5.116-7.876
		c-9.525-2.43-13.279,9.574-7.334,16.512C40.154,172.65,40.375,172.803,40.94,173.134z"/>
	<path fill="#F0AC85" d="M48.339,170.57c0.684,0.684,1.44,0.48,1.69-0.453s-0.102-2.244-0.785-2.928
		c-0.683-0.684-1.439-0.48-1.689,0.453C47.304,168.576,47.656,169.887,48.339,170.57z"/>
</g>
</svg>
